# AST/ASF file generated using VICON BodyLanguage
# -----------------------------------------------
:version 1.10
:name VICON
:units
  mass 1.0
  length 0.45
  angle deg
:documentation
   .ast/.asf automatically generated from VICON data using
   VICON BodyBuilder and BodyLanguage model FoxedUp or BRILLIANT.MOD
:root
   order TX TY TZ RX RY RZ
   axis XYZ
   position 0 0 0  
   orientation 0 0 0 
:bonedata
  begin
     id 1 
     name lhipjoint
     direction 0.558404 -0.748506 0.357664 
     length 2.4234 
     axis 0 0 0  XYZ
  end
  begin
     id 2 
     name lfemur
     direction 0.34202 -0.939693 0  
     length 7.14567  
     axis 0 0 20  XYZ
    dof rx ry rz
    limits (-160.0 20.0)
           (-70.0 70.0)
           (-60.0 70.0)
  end
  begin
     id 3 
     name ltibia
     direction 0.34202 -0.939693 0   
     length 8.13956   
     axis 0 0 20   XYZ
    dof rx
    limits (-10.0 170.0)
  end
  begin
     id 4 
     name lfoot
     direction 0.0791314 -0.217412 0.972867   
     length 2.00134   
     axis -90 7.62852e-016 20   XYZ
    dof rx rz
    limits (-45.0 90.0)
           (-70.0 20.0)
  end
  begin
     id 5 
     name ltoes
     direction 1.53547e-011 -4.21922e-011 1   
     length 1.00735   
     axis -90 7.62852e-016 20   XYZ
    dof rx
    limits (-90.0 20.0)
  end
  begin
     id 6 
     name rhipjoint
     direction -0.496392 -0.78327 0.374276   
     length 2.31584  
     axis 0 0 0  XYZ 
  end
  begin
     id 7 
     name rfemur
     direction -0.34202 -0.939693 0   
     length 7.47417   
     axis 0 0 -20   XYZ
    dof rx ry rz
    limits (-160.0 20.0)
           (-70.0 70.0)
           (-70.0 60.0)
  end
  begin
     id 8 
     name rtibia
     direction -0.34202 -0.939693 0   
     length 7.69071   
     axis 0 0 -20   XYZ
    dof rx
    limits (-10.0 170.0)
 end
 begin
     id 9 
     name rfoot
     direction -0.103069 -0.28318 0.953512   
     length 2.16135  
     axis -90 -7.62852e-016 -20   XYZ
    dof rx rz
    limits (-45.0 90.0)
           (-20.0 70.0)
  end
  begin
     id 10 
     name rtoes
     direction -1.53581e-011 -4.21904e-011 1   
     length 1.07867   
     axis -90 -7.62852e-016 -20   XYZ
    dof rx
    limits (-90.0 20.0)
  end
  begin
     id 11 
     name lowerback
     direction -0.0258961 0.994776 -0.0987407   
     length 2.19412   
     axis 0 0 0   XYZ
    dof rx ry rz
    limits (-20.0 45.0)
           (-30.0 30.0)
           (-30.0 30.0)
  end
  begin
     id 12 
     name upperback
     direction 0.0402454 0.999185 0.00320666   
     length 2.18445   
     axis 0 0 0   XYZ
    dof rx ry rz
    limits (-20.0 45.0)
           (-30.0 30.0)
           (-30.0 30.0)
  end
  begin
     id 13 
     name thorax
     direction 0.0519376 0.997415 0.0496558   
     length 2.21487   
     axis 0 0 0   XYZ
    dof rx ry rz
    limits (-20.0 45.0)
           (-30.0 30.0)
           (-30.0 30.0)
  end
  begin
     id 14 
     name lowerneck
     direction -0.0921276 0.983211 0.157506   
     length 1.61201   
     axis 0 0 0   XYZ
    dof rx ry rz
    limits (-20.0 45.0)
           (-30.0 30.0)
           (-30.0 30.0)
  end
  begin
     id 15 
     name upperneck
     direction 0.0820814 0.98162 -0.172292   
     length 1.65275   
     axis 0 0 0   XYZ
    dof rx ry rz
    limits (-20.0 45.0)
           (-30.0 30.0)
           (-30.0 30.0)
  end
  begin
     id 16
     name head
     direction 0.0336554 0.996413 -0.0776455  
     length 1.66415  
     axis 0 0 0   XYZ
    dof rx ry rz
    limits (-20.0 45.0)
           (-30.0 30.0)
           (-30.0 30.0)
  end
  begin
     id 17 
     name lclavicle
     direction 0.94696 0.284418 -0.149576  
     length 3.41447  
     axis 0 0 0   XYZ
    dof ry rz
    limits (-20.0 10.0)
           (0.0 20.0)
  end
  begin
     id 18 
     name lhumerus
     direction 1 -0.000130264 -9.81312e-005   
     length 5.19964   
     axis 180 -30 -90   XYZ
    dof rx ry rz
    limits (-60.0 90.0)
           (-90.0 90.0)
           (-90.0 90.0)
  end
  begin
     id 19
     name lradius
     direction 1 -4.48961e-011 1.43854e-026   
     length 3.32189   
     axis 180 -30 -90   XYZ
    dof rx
    limits (-10.0 170.0)
  end
  begin
     id 20
     name lwrist
     direction 1 -4.48958e-011 3.1502e-026   
     length 1.66095   
     axis -1.97692e-014 90 90   XYZ
    dof ry
    limits (-180.0 0.0)
 end
  begin
     id 21 
     name lhand
     direction 1 -4.48927e-011 6.3004e-026   
     length 0.645616   
     axis -4.02019e-014 90 90   XYZ
    dof rx rz
    limits (-90.0 90.0)
           (-45.0 45.0)
  end
  begin
     id 22 
     name lfingers
     direction 1 -4.4904e-011 1.26008e-025   
     length 0.520512   
     axis -8.04039e-014 90 90   XYZ
    dof rx
    limits (0.0 90.0)
  end
  begin
     id 23
     name lthumb
     direction 0.707107 -6.34947e-011 0.707107   
     length 0.747354   
     axis -90 45 2.85299e-015   XYZ
    dof rx rz
    limits (-45.0 45.0)
           (-45.0 45.0)
  end
  begin
     id 24 
     name rclavicle
     direction -0.909391 0.383475 -0.161107   
     length 3.25176  
     axis 0 0 0   XYZ 
    dof ry rz
    limits (-10.0 20.0)
           (-20.0 0.0)
  end
  begin
     id 25 
     name rhumerus
     direction -1 -4.48965e-011 -1.81384e-027  
     length 5.6595   
     axis 180 30 90   XYZ
    dof rx ry rz
    limits (-90.0 60.0)
           (-90.0 90.0)
           (-90.0 90.0)
  end
  begin
     id 26 
     name rradius
     direction -1 -4.48996e-011 -8.09397e-027   
     length 3.37604   
     axis 180 30 90   XYZ
    dof rx
    limits (-10.0 170.0)
  end
  begin
     id 27 
     name rwrist
     direction -1 -4.48927e-011 -1.56669e-026   
     length 1.68802   
     axis 1.21142e-014 -90 -90   XYZ
    dof ry
    limits (-180.0 0.0)
  end
  begin
     id 28
     name rhand
     direction -1 -4.48912e-011 -3.13339e-026   
     length 0.824702   
     axis 1.99937e-014 -90 -90   XYZ
    dof rx rz
    limits (-90.0 90.0)
           (-45.0 45.0)
  end
  begin
     id 29
     name rfingers
     direction -1 -4.49011e-011 -6.26677e-026   
     length 0.664896   
     axis 3.99874e-014 -90 -90   XYZ
    dof rx
    limits (0.0 90.0)
  end
  begin
     id 30
     name rthumb
     direction -0.707107 -6.34931e-011 0.707107   
     length 0.954662   
     axis -90 -45 -2.85299e-015   XYZ
    dof rx rz
    limits (-45.0 45.0)
           (-45.0 45.0)
  end
:hierarchy
  begin
    root lhipjoint rhipjoint lowerback
    lhipjoint lfemur
    lfemur ltibia
    ltibia lfoot
    lfoot ltoes
    rhipjoint rfemur
    rfemur rtibia
    rtibia rfoot
    rfoot rtoes
    lowerback upperback
    upperback thorax
    thorax lowerneck lclavicle rclavicle
    lowerneck upperneck
    upperneck head
    lclavicle lhumerus
    lhumerus lradius
    lradius lwrist
    lwrist lhand lthumb
    lhand lfingers
    rclavicle rhumerus
    rhumerus rradius
    rradius rwrist
    rwrist rhand rthumb
    rhand rfingers
  end

#!OML:ASF F:\VICON\USERDATA\INSTALL\rory3\rory3.ASF
:FULLY-SPECIFIED
:DEGREES
296
root 6.76199 16.0512 -12.3006 26.9382 -40.2064 -17.6395
lowerback 13.1249 -0.99437 1.55529
upperback 2.32509 -0.85337 6.90433
thorax -4.82781 -0.459675 6.60806
lowerneck -13.9785 -1.6577 -11.1697
upperneck 24.3695 -3.38942 13.7586
head 10.4858 -1.12758 6.47036
rclavicle 9.68578e-014 -6.99722e-014
rhumerus -17.9171 -3.80618 -70.5607
rradius 49.1838
rwrist -15.976
rhand -19.057 19.9063
rfingers 7.12502
rthumb 7.25008 -9.94953
lclavicle 9.68578e-014 -6.99722e-014
lhumerus -14.3518 38.5052 48.2033
lradius 24.3148
lwrist -13.3225
lhand -5.5089 32.1068
lfingers 7.12502
lthumb 20.3044 61.0654
rfemur -35.6193 -1.26261 27.6645
rtibia 70.8501
rfoot -26.951 -6.06634
rtoes -13.1155
lfemur -36.6365 14.0267 -13.7467
ltibia 87.6191
lfoot -19.778 5.90335
ltoes 0.392254
297
root 6.69264 16.0371 -12.1753 27.2348 -39.7814 -17.6119
lowerback 12.9988 -0.838739 1.66027
upperback 2.2317 -0.629872 6.90277
thorax -4.88136 -0.347479 6.5056
lowerneck -14.2356 -1.91869 -11.1732
upperneck 24.3688 -3.80559 14.0258
head 10.6073 -1.28056 6.52473
rclavicle 3.58806e-014 3.24019e-014
rhumerus -17.0917 -3.16072 -70.4157
rradius 50.3938
rwrist -15.9538
rhand -19.2438 19.7191
rfingers 7.12502
rthumb 7.06982 -10.1428
lclavicle 3.58806e-014 3.24019e-014
lhumerus -14.413 38.2111 46.871
lradius 24.5152
lwrist -13.0518
lhand -4.91386 32.8217
lfingers 7.12502
lthumb 20.8762 61.7184
rfemur -35.0082 -1.49333 27.707
rtibia 70.1986
rfoot -27.3664 -5.94663
rtoes -10.7457
lfemur -39.6775 14.8637 -13.9802
ltibia 89.3939
lfoot -19.7162 5.00956
ltoes 0.0675065
298
root 6.61837 16.0346 -12.021 27.4466 -39.2954 -17.7554
lowerback 12.6624 -0.664483 2.22421
upperback 2.40061 -0.361568 6.7567
thorax -4.54782 -0.229049 5.95849
lowerneck -14.6298 -2.33376 -10.9554
upperneck 24.156 -4.47366 14.3322
head 10.7178 -1.51725 6.50951
rclavicle -4.35338e-014 -5.82439e-014
rhumerus -16.0283 -3.3652 -70.322
rradius 51.4074
rwrist -15.1412
rhand -19.0559 20.2144
rfingers 7.12502
rthumb 7.25115 -9.64138
lclavicle -4.35338e-014 -5.82439e-014
lhumerus -13.8081 37.7684 45.7304
lradius 24.4094
lwrist -13.1446
lhand -4.82332 33.158
lfingers 7.12502
lthumb 20.9632 62.0451
rfemur -33.8977 -1.80264 27.8474
rtibia 69.1707
rfoot -27.8429 -6.10661
rtoes -9.95864
lfemur -42.4898 15.6128 -14.1219
ltibia 90.803
lfoot -19.3678 4.17399
ltoes -0.171299
299
root 6.53223 16.0622 -11.8329 27.4572 -38.94 -17.9087
lowerback 12.4686 -0.427526 2.7149
upperback 2.51972 -0.00862152 6.67747
thorax -4.34543 -0.0636646 5.52416
lowerneck -14.4283 -2.7417 -11.0363
upperneck 23.7587 -5.09672 14.669
head 10.6431 -1.77958 6.54818
rclavicle 2.50469e-014 -5.64548e-014
rhumerus -15.3716 -3.12442 -70.0389
rradius 52.9358
rwrist -15.2562
rhand -19.2362 19.9821
rfingers 7.12502
rthumb 7.07713 -9.87956
lclavicle 2.50469e-014 -5.64548e-014
lhumerus -13.6562 37.3411 44.6039
lradius 24.5847
lwrist -13.1269
lhand -4.98068 33.206
lfingers 7.12502
lthumb 20.812 62.1098
rfemur -32.1999 -2.19631 27.8368
rtibia 67.7382
rfoot -28.5464 -5.76817
rtoes -9.53688
lfemur -44.8103 16.2132 -14.3497
ltibia 91.68
lfoot -18.928 3.52786
ltoes -0.945831
300
root 6.44269 16.103 -11.6429 27.4627 -38.5992 -18.0115
lowerback 12.5971 -0.243833 2.81602
upperback 2.34384 0.277376 6.79315
thorax -4.62435 0.0800081 5.55211
lowerneck -13.9507 -2.96811 -11.285
upperneck 23.6411 -5.42215 14.7962
head 10.5673 -1.95524 6.58953
rclavicle -1.34925e-014 2.83268e-014
rhumerus -15.0984 -2.3023 -69.5554
rradius 54.6489
rwrist -15.3373
rhand -19.1766 19.8997
rfingers 7.12502
rthumb 7.13472 -9.96003
lclavicle -1.34925e-014 2.83268e-014
lhumerus -14.4107 37.2757 43.1086
lradius 24.8762
lwrist -12.9741
lhand -4.92219 33.2741
lfingers 7.12502
lthumb 20.8682 62.1717
rfemur -30.4925 -2.63324 27.8812
rtibia 66.0303
rfoot -29.0148 -5.99695
rtoes -11.8794
lfemur -47.0382 16.7622 -14.6965
ltibia 92.1413
lfoot -18.8031 3.15304
ltoes -2.4155
301
root 6.35776 16.1255 -11.4653 27.6429 -38.0704 -18.3337
lowerback 12.8322 -0.127507 2.93942
upperback 2.07349 0.500339 7.08457
thorax -5.06013 0.193194 5.77272
lowerneck -13.8013 -3.15621 -11.3545
upperneck 23.916 -5.67408 14.6145
head 10.675 -2.1006 6.51178
rclavicle -3.86896e-014 -2.5557e-014
rhumerus -14.8043 -1.29635 -69.0436
rradius 56.3602
rwrist -15.3284
rhand -19.3078 19.7864
rfingers 7.12502
rthumb 7.00805 -10.0776
lclavicle -3.86896e-014 -2.5557e-014
lhumerus -15.6427 37.4221 41.4776
lradius 25.2083
lwrist -12.9569
lhand -5.02506 33.0586
lfingers 7.12502
lthumb 20.7693 61.9671
rfemur -28.644 -2.52235 28.06
rtibia 64.196
rfoot -29.8033 -4.56386
rtoes -4.08963
lfemur -49.4293 17.4531 -14.8338
ltibia 92.428
lfoot -18.9446 2.92897
ltoes -4.00229
302
root 6.27088 16.161 -11.2782 27.761 -37.5291 -18.6779
lowerback 12.8867 0.0584707 3.20585
upperback 1.95298 0.808502 7.32929
thorax -5.2433 0.342493 5.83762
lowerneck -13.6009 -3.45259 -11.5865
upperneck 23.9888 -6.091 14.6965
head 10.7397 -2.3104 6.53231
rclavicle 2.79541e-014 -6.92765e-014
rhumerus -14.3856 -0.884415 -68.468
rradius 57.9212
rwrist -15.0275
rhand -19.4751 19.8584
rfingers 7.12502
rthumb 6.84658 -10.0109
lclavicle 2.79541e-014 -6.92765e-014
lhumerus -16.8092 37.2755 40.1616
lradius 25.9538
lwrist -12.8487
lhand -5.15421 32.8709
lfingers 7.12502
lthumb 20.6452 61.7929
rfemur -26.7394 -2.50031 28.3689
rtibia 62.1764
rfoot -27.9758 -9.39051
rtoes -26.7936
lfemur -51.6907 18.0571 -14.9308
ltibia 92.3422
lfoot -19.0815 2.72531
ltoes -5.25478
303
root 6.18485 16.2168 -11.0906 27.8539 -36.9632 -18.9423
lowerback 12.8974 0.277877 3.45697
upperback 1.95673 1.13973 7.43638
thorax -5.26891 0.501197 5.7525
lowerneck -13.2545 -3.83721 -11.8942
upperneck 23.7033 -6.67724 15.1146
head 10.6893 -2.57645 6.65494
rclavicle 4.37326e-015 6.95746e-015
rhumerus -13.8201 -0.908023 -68.0343
rradius 59.4757
rwrist -14.5788
rhand -19.0414 20.477
rfingers 7.12502
rthumb 7.26523 -9.37826
lclavicle 4.37326e-015 6.95746e-015
lhumerus -17.5226 36.4734 39.0539
lradius 27.1406
lwrist -11.8441
lhand -5.09734 33.4682
lfingers 7.12502
lthumb 20.6999 62.3843
rfemur -25.4053 -3.43481 29.2398
rtibia 59.956
rfoot -25.6031 -14.0089
rtoes -36.1627
lfemur -54.1218 18.4171 -15.0474
ltibia 91.8692
lfoot -19.2642 2.21444
ltoes -5.403
304
root 6.08847 16.2761 -10.8783 27.9728 -36.5433 -19.3542
lowerback 12.7115 0.541857 3.79595
upperback 2.12104 1.50532 7.4632
thorax -5.01054 0.673125 5.51853
lowerneck -13.8711 -4.24075 -11.4504
upperneck 23.8828 -7.34887 15.1817
head 10.981 -2.80888 6.5144
rclavicle -5.34234e-014 3.65764e-014
rhumerus -13.2323 -0.791968 -67.7095
rradius 61.2631
rwrist -14.6075
rhand -18.64 20.9708
rfingers 7.12502
rthumb 7.65263 -8.87071
lclavicle -5.34234e-014 3.65764e-014
lhumerus -17.587 35.8775 37.9856
lradius 27.9989
lwrist -10.4553
lhand -5.0873 34.3088
lfingers 7.12502
lthumb 20.7095 63.2239
rfemur -22.7152 -2.25231 29.0418
rtibia 57.6004
rfoot -28.442 -8.12544
rtoes -15.3452
lfemur -56.1805 18.8362 -15.112
ltibia 91.0164
lfoot -19.8523 1.75524
ltoes -4.08592
305
root 5.98946 16.3524 -10.6531 28.0961 -36.1389 -19.784
lowerback 12.7161 0.819906 3.93759
upperback 2.10751 1.90207 7.62053
thorax -5.05636 0.866768 5.5409
lowerneck -14.4431 -4.69961 -11.3278
upperneck 24.3885 -8.11509 15.3687
head 11.4221 -3.09898 6.47739
rclavicle 2.46493e-014 4.6118e-014
rhumerus -12.9176 -0.328656 -67.2392
rradius 63.1433
rwrist -14.9165
rhand -18.9994 21.0216
rfingers 7.12502
rthumb 7.30572 -8.83227
lclavicle 2.46493e-014 4.6118e-014
lhumerus -17.64 35.763 36.8521
lradius 28.2509
lwrist -9.39957
lhand -5.82561 35.878
lfingers 7.12502
lthumb 20 64.8688
rfemur -20.4589 -1.97978 29.3267
rtibia 55.1055
rfoot -27.9348 -8.06486
rtoes -14.9104
lfemur -57.9641 19.0931 -15.1312
ltibia 89.7438
lfoot -20.2939 1.45688
ltoes -1.90955
306
root 5.89221 16.4336 -10.4242 28.2281 -35.5513 -20.2234
lowerback 12.8113 1.00229 4.10346
upperback 1.92135 2.20689 7.89666
thorax -5.33458 1.01593 5.69757
lowerneck -11.3441 -4.47332 -12.1447
upperneck 22.1763 -7.8936 16.5457
head 10.0372 -3.10779 7.01626
rclavicle -3.24019e-014 3.93594e-014
rhumerus -12.8846 0.433173 -66.6551
rradius 65.0968
rwrist -15.0692
rhand -19.3248 20.989
rfingers 7.12502
rthumb 6.99162 -8.87556
lclavicle -3.24019e-014 3.93594e-014
lhumerus -18.2867 35.354 35.5828
lradius 28.4303
lwrist -8.96442
lhand -7.22084 36.8596
lfingers 7.12502
lthumb 18.6584 65.9848
rfemur -18.2788 -1.86375 29.7416
rtibia 52.6397
rfoot -26.8018 -8.74227
rtoes -16.5864
lfemur -59.6472 19.1247 -15.0498
ltibia 88.2132
lfoot -20.4478 1.35676
ltoes -3.01692
307
root 5.79569 16.5075 -10.1962 28.2212 -34.8709 -20.5482
lowerback 12.8407 1.08091 4.30937
upperback 1.78965 2.36743 8.13399
thorax -5.50587 1.0925 5.81362
lowerneck -13.1472 -5.29819 -12.1966
upperneck 23.9177 -9.20129 16.6823
head 11.2859 -3.60178 6.97546
rclavicle -5.56597e-014 -7.93151e-014
rhumerus -12.8596 1.32994 -66.089
rradius 67.069
rwrist -15.246
rhand -19.1474 21.2497
rfingers 7.12502
rthumb 7.16287 -8.60911
lclavicle -5.56597e-014 -7.93151e-014
lhumerus -19.1389 34.9111 34.1924
lradius 28.5992
lwrist -8.85663
lhand -7.63231 35.772
lfingers 7.12502
lthumb 18.2626 64.9347
rfemur -16.126 -1.86049 30.1036
rtibia 50.1835
rfoot -25.1484 -9.48397
rtoes -20.0618
lfemur -61.1535 19.0408 -15.0466
ltibia 86.449
lfoot -20.4643 1.62723
ltoes -7.59224
